<?xml version="1.0" encoding="utf-8"?>
<!-- Generator: Adobe Illustrator 15.0.0, SVG Export Plug-In . SVG Version: 6.00 Build 0)  -->
<!DOCTYPE svg PUBLIC "-//W3C//DTD SVG 1.1//EN" "http://www.w3.org/Graphics/SVG/1.1/DTD/svg11.dtd" [
	<!ENTITY ns_flows "http://ns.adobe.com/Flows/1.0/">
	<!ENTITY ns_extend "http://ns.adobe.com/Extensibility/1.0/">
	<!ENTITY ns_ai "http://ns.adobe.com/AdobeIllustrator/10.0/">
	<!ENTITY ns_graphs "http://ns.adobe.com/Graphs/1.0/">
	<!ENTITY st0 "fill:#010101;">
]>
<svg version="1.1" id="Layer_1" xmlns:x="&ns_extend;" xmlns:i="&ns_ai;" xmlns:graph="&ns_graphs;"
	 xmlns="http://www.w3.org/2000/svg" xmlns:xlink="http://www.w3.org/1999/xlink" xmlns:a="http://ns.adobe.com/AdobeSVGViewerExtensions/3.0/"
	 x="0px" y="0px" width="600px" height="145px" viewBox="0 0 600 145" style="enable-background:new 0 0 600 145;"
	 xml:space="preserve">
<g>
	<path style="&st0;" d="M76.103,87.098c-6.825,4.588-15.999,6.266-18.126,6.041H31.348V7.994h23.273
		c3.917,0,15.777,4.923,13.986,13.538l-4.139,12.083c16.671,13.316,19.468,22.827,19.468,33.456
		C83.935,73.673,83.71,78.26,76.103,87.098z M55.851,18.958H41.753v17.679c4.251-2.014,15.104-7.273,15.104-13.426
		C56.857,21.085,55.851,19.854,55.851,18.958z M54.731,40.89l-12.867,7.833v34.35h15.329c7.608,0.111,15.665-6.938,15.665-16
		C72.857,57.784,65.473,46.932,54.731,40.89z"/>
	<path style="&st0;" d="M134.851,92.693l-3.021-9.176h-27.412l-2.351,9.176H91.885l22.266-82.685l8.727,0.112l22.378,82.573H134.851
		L134.851,92.693z M128.92,71.21H106.99l-0.896,4.028h24.057L128.92,71.21z M117.844,31.827l-7.944,31.105h16.895L117.844,31.827z"
		/>
	<path style="&st0;" d="M159.025,92.693V7.324h10.965v75.86h27.86v9.512h-38.825V92.693z"/>
	<path style="&st0;" d="M207.48,7.66h52.698v10.741h-20.027v74.292H228.18V18.401H207.48V7.66L207.48,7.66z"/>
	<path style="&st0;" d="M272.717,92.693V8.778h10.406v83.916H272.717z"/>
	<path style="&st0;" d="M353.728,92.244l-0.445-63.774l-17.121,18.238l-16.783-19.133v64.224h-11.525V9h10.188l19.021,21.931
		L355.073,9h10.293v83.245H353.728L353.728,92.244z M332.02,70.651v-8.838h10.519v8.838H332.02z M332.469,91.799v-9.287h10.069
		v9.287H332.469z"/>
	<path style="&st0;" d="M412.704,59.686c-14.992,0-27.078-10.405-27.078-25.398c0-14.994,11.19-27.189,26.185-27.189
		c14.992,0,27.188,12.195,27.188,27.189C438.998,49.282,427.696,59.686,412.704,59.686z M428.817,33.392
		c0-9.063-7.387-16.448-16.339-16.448c-9.063,0-16.446,7.385-16.446,16.336c0,9.064,7.383,16.449,16.336,16.449
		c9.062,0,16.449-7.385,16.449-16.449V33.392z M406.439,92.357V81.391h12.308v10.967H406.439z"/>
	<path style="&st0;" d="M500.321,92.914l-25.176-49.229c-0.896,0-5.479,0-5.596,0l0.113,49.119h-10.74V8.778h27.971
		c13.203,0,20.027,7.384,18.24,20.587c-1.121,8.279-10.521,11.749-17.68,13.651l25.396,49.898H500.321z M490.475,18.958
		c-3.244-1.789-20.924-0.783-20.924-0.783v14.994h14.885c4.586-0.112,7.943-2.35,9.398-6.042
		C494.502,25.225,495.062,21.307,490.475,18.958z"/>
	<path style="&st0;" d="M525.95,7.098h37.707v10.628h-27.521v5.82h39.719v9.51h-39.719v50.349h31.774v9.287H525.95V7.098
		L525.95,7.098z"/>
</g>
<g>
	<path style="&st0;" d="M48.51,137.379l-1.006-3.059h-9.133l-0.783,3.059h-3.393l7.418-27.551l2.909,0.035l7.456,27.516H48.51z
		 M46.534,130.223h-7.306l-0.299,1.34h8.015L46.534,130.223z M42.843,117.098l-2.647,10.363h5.629L42.843,117.098z"/>
	<path style="&st0;" d="M64.668,119.223c0-6.148,3.84-9.133,8.649-9.99c3.28-0.598,7.12,0.148,7.12,0.148v3.281
		c-1.454-0.189-2.498-0.633-4.585-0.6c-2.61,0.076-6.71,1.23-7.345,5.967c-0.82,6.111,2.237,13.645,10.513,15.061v-18.006H82.6
		v22.59C72.833,136.223,64.668,132.607,64.668,119.223z"/>
	<path style="&st0;" d="M88.616,109.418h3.69v20.096c0,2.199,0.634,5.145,4.772,5.145c3.393,0,4.437-2.943,4.437-5.145v-20.096
		h3.505v21.213c0,2.76-2.125,7.271-7.941,7.271c-6.561,0-8.462-5.33-8.462-7.271L88.616,109.418L88.616,109.418z"/>
	<path style="&st0;" d="M112.04,137.379v-27.961h3.466v27.961H112.04z"/>
	<path style="&st0;" d="M129.604,135.479c-1.492,0.742-6.972,2.086-8.276,2.086l0.188-27.66c0,0,1.303-1.043,6.486-1.043
		c9.729,0,10.96,7.191,10.997,10.998C138.999,127.871,136.315,132.049,129.604,135.479z M128.896,112.141
		c-2.76-0.188-3.58,0.559-3.58,0.559v20.729c6.078-1.49,9.843-6.561,9.843-12.748C135.159,117.246,133.37,112.402,128.896,112.141z"
		/>
	<path style="&st0;" d="M144.642,108.861h12.563v3.541h-9.171v1.938h13.235v3.17h-13.235v16.775h10.588v3.096h-13.98V108.861z"/>
	<path style="&st0;" d="M172.652,109.047h17.559v3.576h-6.672v24.756h-3.988v-24.756h-6.898L172.652,109.047L172.652,109.047z"/>
	<path style="&st0;" d="M201.668,126.381c-4.996,0-9.022-3.467-9.022-8.463c0-4.994,3.728-9.059,8.724-9.059
		s9.058,4.062,9.058,9.059C210.428,122.914,206.663,126.381,201.668,126.381z M207.038,117.619c0-3.021-2.46-5.479-5.442-5.479
		c-3.021,0-5.481,2.459-5.481,5.441c0,3.02,2.46,5.479,5.442,5.479c3.021,0,5.481-2.461,5.481-5.479V117.619z M199.58,137.266v-3.65
		h4.102v3.65H199.58z"/>
	<path style="&st0;" d="M223.418,109.047h17.561v3.576h-6.672v24.756h-3.99v-24.756h-6.898L223.418,109.047L223.418,109.047z"/>
	<path style="&st0;" d="M257.355,137.676v-15.918h-8.499v15.918h-3.544v-28.145h3.544v5.256h8.499v-5.186h3.355v28.072
		L257.355,137.676L257.355,137.676z M257.393,117.545h-8.536v1.156h8.536V117.545z"/>
	<path style="&st0;" d="M267.394,108.861h12.564v3.541h-9.17v1.938h13.233v3.17h-13.233v16.775h10.588v3.096h-13.982V108.861
		L267.394,108.861z"/>
	<path style="&st0;" d="M296.639,120.938c0-7.977,5.892-12.375,10.217-12.375c2.125,0,3.802-0.188,6.335,0.893l-1.004,3.432
		c-1.529-0.744-2.76-0.744-6.042-0.744c-3.169,0-6.036,4.771-5.925,8.797c0.222,7.082,4.957,12.008,14.091,13.311v3.055
		C304.915,137.303,296.639,130.518,296.639,120.938z"/>
	<path style="&st0;" d="M319.243,137.379v-27.961h3.467v27.961H319.243z"/>
	<path style="&st0;" d="M326.518,109.047h17.562v3.576h-6.677v24.756h-3.987v-24.756h-6.896L326.518,109.047L326.518,109.047z"/>
	<path style="&st0;" d="M355.083,118.516l5.109-8.574h3.428l-7.008,12.229v15.211h-3.354v-15.137l-6.673-12.229h3.765
		L355.083,118.516z"/>
</g>
</svg>
