<?xml version="1.0" encoding="utf-8"?>
<!-- Generator: Adobe Illustrator 15.0.0, SVG Export Plug-In . SVG Version: 6.00 Build 0)  -->
<!DOCTYPE svg PUBLIC "-//W3C//DTD SVG 1.1//EN" "http://www.w3.org/Graphics/SVG/1.1/DTD/svg11.dtd">
<svg version="1.1" id="Layer_1" xmlns="http://www.w3.org/2000/svg" xmlns:xlink="http://www.w3.org/1999/xlink" x="0px" y="0px"
	 width="169.25px" height="97.924px" viewBox="1.5 -6.014 169.25 97.924" enable-background="new 1.5 -6.014 169.25 97.924"
	 xml:space="preserve">
<g>
	<path d="M155.157,3.407h-11.695c-4.888,0-9.243,2.252-12.104,5.771h-4.464h-15.169c0.142-0.765,0.226-1.552,0.226-2.359
		c0-7.087-5.745-12.832-12.832-12.832H72.481c-7.087,0-12.832,5.745-12.832,12.832c0,0.807,0.083,1.594,0.226,2.359H40.892
		c-2.858-3.519-7.217-5.771-12.104-5.771H17.093C8.482,3.407,1.5,10.389,1.5,19v46.455c0,8.611,6.982,15.592,15.593,15.592h11.695
		c2.681,0,5.203-0.676,7.406-1.867h99.863c2.203,1.191,4.726,1.867,7.405,1.867h11.695c8.611,0,15.593-6.98,15.593-15.592V19
		C170.75,10.389,163.769,3.407,155.157,3.407z"/>
	<path stroke="#FFFFFF" stroke-width="1.1578" stroke-miterlimit="10" d="M60.822,81.385c6.538,6.537,14.352,9.947,23.446,9.947
		c9.093,0,16.907-3.27,23.442-9.947c6.535-6.535,9.806-14.49,9.806-23.727c0-9.235-3.271-17.191-9.806-23.729
		c-6.535-6.535-14.35-9.946-23.442-9.946c-9.094,0-16.908,3.269-23.446,9.946c-6.535,6.678-9.662,14.493-9.662,23.729
		C51.161,66.891,54.428,74.85,60.822,81.385z"/>
	<path fill="#FFFFFF" d="M69.204,42.311c4.122-4.26,9.237-6.392,15.063-6.392c5.823,0,10.94,2.131,15.062,6.392
		c4.12,4.265,6.252,9.38,6.252,15.348c0,5.969-2.132,11.08-6.252,15.344c-4.121,4.264-9.237,6.396-15.062,6.396
		c-5.826,0-10.941-2.133-15.063-6.396c-4.119-4.26-6.25-9.375-6.25-15.344C62.954,51.691,65.085,46.578,69.204,42.311z"/>
</g>
</svg>
