<?xml version="1.0" encoding="utf-8"?>
<!-- Generator: Adobe Illustrator 15.0.0, SVG Export Plug-In . SVG Version: 6.00 Build 0)  -->
<!DOCTYPE svg PUBLIC "-//W3C//DTD SVG 1.1//EN" "http://www.w3.org/Graphics/SVG/1.1/DTD/svg11.dtd">
<svg version="1.1" id="Layer_1" xmlns="http://www.w3.org/2000/svg" xmlns:xlink="http://www.w3.org/1999/xlink" x="0px" y="0px"
	 width="180px" height="55.333px" viewBox="0 19.834 180 55.333" enable-background="new 0 19.834 180 55.333" xml:space="preserve"
	>
<g>
	<path d="M16.45,52.74c-2.195,1.476-5.147,2.016-5.831,1.943H2.052V27.292h7.487c1.26,0,5.076,1.584,4.5,4.355l-1.332,3.887
		c5.363,4.284,6.263,7.343,6.263,10.763C18.97,48.421,18.897,49.896,16.45,52.74z M9.935,30.819H5.399v5.688
		c1.368-0.648,4.859-2.34,4.859-4.319C10.259,31.503,9.935,31.107,9.935,30.819z M9.575,37.874l-4.139,2.52v11.05h4.931
		c2.448,0.036,5.04-2.231,5.04-5.147C15.406,43.31,13.03,39.818,9.575,37.874z"/>
	<path d="M35.35,54.54l-0.972-2.952h-8.819l-0.756,2.952h-3.275l7.163-26.601l2.808,0.036l7.199,26.564H35.35z M33.442,47.629
		h-7.055l-0.288,1.296h7.739L33.442,47.629z M29.878,34.958l-2.556,10.007h5.435L29.878,34.958z"/>
	<path d="M43.127,54.54V27.076h3.527V51.48h8.963v3.06H43.127z"/>
	<path d="M58.715,27.184h16.954v3.456h-6.443V54.54h-3.852V30.639h-6.659V27.184z"/>
	<path d="M79.703,54.54V27.543h3.348V54.54H79.703z"/>
	<path d="M105.765,54.396l-0.144-20.518l-5.508,5.868l-5.399-6.155v20.661h-3.708V27.615h3.276l6.119,7.055l5.795-7.055h3.312
		v26.781H105.765z M98.781,47.449v-2.843h3.384v2.843H98.781z M98.926,54.252v-2.987h3.239v2.987H98.926z"/>
	<path d="M124.738,43.921c-4.823,0-8.711-3.348-8.711-8.171c0-4.824,3.6-8.747,8.423-8.747s8.747,3.923,8.747,8.747
		C133.197,40.574,129.562,43.921,124.738,43.921z M129.922,35.462c0-2.916-2.376-5.292-5.256-5.292
		c-2.916,0-5.291,2.376-5.291,5.255c0,2.916,2.375,5.292,5.255,5.292c2.916,0,5.292-2.375,5.292-5.292V35.462z M122.723,54.432
		v-3.528h3.959v3.528H122.723z"/>
	<path d="M152.926,54.611l-8.1-15.837c-0.288,0-1.764,0-1.8,0l0.036,15.802h-3.455V27.543h8.998c4.248,0,6.443,2.375,5.868,6.623
		c-0.36,2.664-3.384,3.78-5.688,4.392l8.171,16.053H152.926z M149.758,30.819c-1.044-0.576-6.731-0.252-6.731-0.252v4.824h4.788
		c1.476-0.036,2.556-0.756,3.023-1.944C151.054,32.835,151.233,31.575,149.758,30.819z"/>
	<path d="M161.171,27.003h12.131v3.419h-8.854v1.872h12.778v3.06h-12.778v16.198h10.223v2.988h-13.499V27.003z"/>
</g>
<g>
	<path d="M7.573,68.916L7.25,67.933H4.311l-0.252,0.983H2.968l2.387-8.863l0.936,0.012l2.398,8.852H7.573z M6.938,66.613H4.587
		l-0.096,0.432h2.579L6.938,66.613z M5.75,62.392l-0.852,3.334h1.811L5.75,62.392z"/>
	<path d="M12.771,63.075c0-1.979,1.235-2.938,2.783-3.214c1.055-0.192,2.291,0.048,2.291,0.048v1.056
		c-0.468-0.061-0.804-0.204-1.475-0.192c-0.839,0.024-2.159,0.396-2.363,1.919c-0.264,1.967,0.72,4.39,3.382,4.846v-5.793h1.151
		v7.268C15.398,68.544,12.771,67.381,12.771,63.075z"/>
	<path d="M20.476,59.921h1.187v6.465c0,0.707,0.204,1.654,1.535,1.654c1.091,0,1.427-0.947,1.427-1.654v-6.465h1.127v6.824
		c0,0.888-0.684,2.339-2.555,2.339c-2.111,0-2.722-1.715-2.722-2.339V59.921z"/>
	<path d="M28.011,68.916v-8.995h1.115v8.995H28.011z"/>
	<path d="M33.662,68.305c-0.48,0.239-2.243,0.671-2.663,0.671l0.06-8.898c0,0,0.419-0.336,2.087-0.336
		c3.13,0,3.526,2.314,3.538,3.538C36.684,65.857,35.821,67.201,33.662,68.305z M33.434,60.797c-0.888-0.061-1.151,0.18-1.151,0.18
		v6.668c1.955-0.479,3.167-2.11,3.167-4.102C35.449,62.439,34.873,60.881,33.434,60.797z"/>
	<path d="M38.5,59.741h4.042v1.14h-2.95v0.623h4.258v1.02h-4.258v5.397h3.406v0.995H38.5V59.741z"/>
	<path d="M47.511,59.801h5.649v1.151h-2.146v7.964H49.73v-7.964h-2.219V59.801z"/>
	<path d="M56.846,65.378c-1.607,0-2.902-1.115-2.902-2.723c0-1.606,1.199-2.914,2.806-2.914c1.607,0,2.915,1.308,2.915,2.914
		C59.664,64.263,58.453,65.378,56.846,65.378z M58.573,62.56c0-0.972-0.792-1.763-1.751-1.763c-0.972,0-1.763,0.791-1.763,1.751
		c0,0.971,0.792,1.763,1.751,1.763c0.972,0,1.763-0.792,1.763-1.763V62.56z M56.174,68.88v-1.175h1.319v1.175H56.174z"/>
	<path d="M63.843,59.801h5.649v1.151h-2.146v7.964h-1.283v-7.964h-2.219V59.801z"/>
	<path d="M74.761,69.012v-5.121h-2.734v5.121h-1.14v-9.055h1.14v1.691h2.734V59.98h1.08v9.031H74.761z M74.773,62.535h-2.747v0.372
		h2.747V62.535z"/>
	<path d="M77.99,59.741h4.042v1.14h-2.95v0.623h4.258v1.02h-4.258v5.397h3.406v0.995H77.99V59.741z"/>
	<path d="M87.398,63.627c0-2.566,1.896-3.981,3.287-3.981c0.684,0,1.223-0.061,2.038,0.287L92.4,61.036
		c-0.492-0.239-0.888-0.239-1.943-0.239c-1.02,0-1.942,1.535-1.906,2.83c0.071,2.278,1.595,3.862,4.533,4.281v0.983
		C90.062,68.892,87.398,66.709,87.398,63.627z"/>
	<path d="M94.671,68.916v-8.995h1.115v8.995H94.671z"/>
	<path d="M97.011,59.801h5.649v1.151h-2.147v7.964h-1.283v-7.964h-2.219V59.801z"/>
	<path d="M106.201,62.848l1.644-2.759h1.103l-2.254,3.934v4.894h-1.08v-4.869l-2.146-3.934h1.211L106.201,62.848z"/>
</g>
</svg>
