<svg xmlns="http://www.w3.org/2000/svg" version="1.1" x="0" y="0" width="546.5" height="144.67" viewBox="0 19.83 546.5 144.67" xml:space="preserve"><path d="M46.81 107c-6.82 4.59-16 6.27-18.13 6.04H2.05V27.9h23.27c3.92 0 15.78 4.92 13.99 13.54L35.17 53.52c16.67 13.32 19.47 22.83 19.47 33.46C54.64 93.58 54.42 98.16 46.81 107zM26.56 38.86H12.46v17.68c4.25-2.01 15.1-7.27 15.1-13.43C27.56 40.99 26.56 39.76 26.56 38.86zM25.44 60.79l-12.87 7.83v34.35h15.33c7.61 0.11 15.67-6.94 15.67-16C43.56 77.69 36.18 66.84 25.44 60.79zM105.56 112.6l-3.02-9.18H75.12l-2.35 9.18H62.59l22.27-82.68 8.73 0.11 22.38 82.57H105.56zM99.63 91.12H77.69l-0.9 4.03h24.06L99.63 91.12zM88.55 51.73l-7.94 31.11h16.9L88.55 51.73zM129.73 112.6v-85.37h10.97v75.86h27.86v9.51H129.73zM178.19 27.56h52.7v10.74h-20.03v74.29h-11.97V38.31h-20.7V27.56zM243.42 112.6V28.68h10.41v83.92H243.42zM324.43 112.15l-0.45-63.77 -17.12 18.24 -16.78-19.13v64.22h-11.53V28.91h10.19l19.02 21.93 18.01-21.93h10.29v83.25H324.43zM302.72 90.56v-8.84h10.52v8.84H302.72zM303.17 111.7v-9.29h10.07v9.29H303.17zM383.41 79.59c-14.99 0-27.08-10.4-27.08-25.4 0-14.99 11.19-27.19 26.18-27.19 14.99 0 27.19 12.2 27.19 27.19C409.7 69.19 398.4 79.59 383.41 79.59zM399.52 53.3c0-9.06-7.38-16.45-16.34-16.45 -9.06 0-16.45 7.39-16.45 16.34 0 9.06 7.38 16.45 16.34 16.45 9.06 0 16.45-7.38 16.45-16.45V53.3zM377.14 112.26v-10.97h12.31v10.97H377.14zM471.03 112.82L445.85 63.59c-0.9 0-5.48 0-5.59 0l0.11 49.12h-10.74V28.68h27.97c13.2 0 20.03 7.38 18.24 20.59 -1.12 8.28-10.52 11.75-17.68 13.65l25.4 49.9H471.03zM461.18 38.86c-3.24-1.79-20.92-0.78-20.92-0.78v14.99h14.88c4.59-0.11 7.94-2.35 9.4-6.04C465.21 45.13 465.77 41.21 461.18 38.86zM496.66 27h37.71v10.63H506.84v5.82h39.72v9.51h-39.72v50.35h31.78v9.29h-41.96V27z"/><path d="M19.21 157.28l-1.01-3.06H9.07l-0.78 3.06H4.9l7.42-27.55 2.91 0.04 7.46 27.52H19.21zM17.24 150.13H9.93l-0.3 1.34h8.02L17.24 150.13zM13.55 137L10.9 147.37h5.63L13.55 137zM35.37 139.13c0-6.15 3.84-9.13 8.65-9.99 3.28-0.6 7.12 0.15 7.12 0.15v3.28c-1.45-0.19-2.5-0.63-4.58-0.6 -2.61 0.08-6.71 1.23-7.34 5.97 -0.82 6.11 2.24 13.65 10.51 15.06V134.99h3.58v22.59C43.54 156.13 35.37 152.51 35.37 139.13zM59.32 129.32h3.69v20.1c0 2.2 0.63 5.14 4.77 5.14 3.39 0 4.44-2.94 4.44-5.14v-20.1h3.51v21.21c0 2.76-2.12 7.27-7.94 7.27 -6.56 0-8.46-5.33-8.46-7.27V129.32zM82.74 157.28v-27.96h3.47v27.96H82.74zM100.31 155.38c-1.49 0.74-6.97 2.09-8.28 2.09l0.19-27.66c0 0 1.3-1.04 6.49-1.04 9.73 0 10.96 7.19 11 11C109.7 147.78 107.02 151.95 100.31 155.38zM99.6 132.05c-2.76-0.19-3.58 0.56-3.58 0.56v20.73c6.08-1.49 9.84-6.56 9.84-12.75C105.86 137.15 104.07 132.31 99.6 132.05zM115.35 128.77h12.56v3.54h-9.17v1.94h13.24v3.17h-13.23v16.78h10.59v3.09h-13.98V128.77zM143.36 128.95h17.56v3.58h-6.67v24.76h-3.99v-24.75h-6.9V128.95zM172.37 146.29c-5 0-9.02-3.47-9.02-8.46 0-4.99 3.73-9.06 8.72-9.06s9.06 4.06 9.06 9.06C181.13 142.82 177.37 146.29 172.37 146.29zM177.74 137.53c0-3.02-2.46-5.48-5.44-5.48 -3.02 0-5.48 2.46-5.48 5.44 0 3.02 2.46 5.48 5.44 5.48 3.02 0 5.48-2.46 5.48-5.48V137.53zM170.28 157.17v-3.65h4.1v3.65H170.28zM194.12 128.95h17.56v3.58h-6.67v24.76h-3.99v-24.75h-6.9V128.95zM228.06 157.58v-15.92h-8.5v15.92h-3.54v-28.14h3.54v5.26h8.5v-5.18h3.36v28.07H228.06zM228.1 137.45h-8.54v1.16h8.54V137.45zM238.1 128.77h12.56v3.54h-9.17v1.94h13.23v3.17h-13.23v16.78h10.59v3.09h-13.98V128.77zM267.34 140.84c0-7.98 5.89-12.38 10.22-12.38 2.13 0 3.8-0.19 6.34 0.89l-1 3.43c-1.53-0.74-2.76-0.74-6.04-0.74 -3.17 0-6.04 4.77-5.92 8.8 0.22 7.08 4.96 12.01 14.09 13.31v3.06C275.62 157.21 267.34 150.42 267.34 140.84zM289.95 157.28v-27.96h3.47v27.96H289.95zM297.22 128.95h17.56v3.58h-6.68v24.76h-3.99v-24.75h-6.9V128.95zM325.79 138.42l5.11-8.57h3.43l-7.01 12.23v15.21h-3.36v-15.14l-6.67-12.23h3.76L325.79 138.42z"/></svg>